<?xml version="1.0" encoding="UTF-8" standalone="no"?>
<!-- Created with Inkscape (http://www.inkscape.org/) -->

<svg
   width="210mm"
   height="297mm"
   viewBox="0 0 210 297"
   version="1.1"
   id="svg5"
   xmlns="http://www.w3.org/2000/svg"
>
  <defs
     id="defs2" />
  <g
     id="layer1">
    <g
       id="layer1-7"
       transform="translate(24.135053,13.50943)">
      <path
         id="path1312"
         style="fill:#268765;fill-opacity:1;stroke-width:0.367889"
         d="m -32.539491,-5.1647061 0.233177,2.7541957 c 0.12793,1.51482177 4.945463,59.1428064 10.705951,128.0618504 5.760475,68.9191 10.527222,125.36425 10.592535,125.43383 0.06527,0.0693 21.678877,6.51583 48.029963,14.32458 35.649891,10.56427 48.138922,14.12323 48.80163,13.90676 0.489853,-0.1604 22.132785,-6.55828 48.095395,-14.2184 25.96256,-7.66012 47.25116,-13.97081 47.30772,-14.02341 0.10399,-0.0958 21.43792,-254.337567 21.446,-255.5745824 0.001,-0.6317884 -5.83126,-0.6648237 -117.603381,-0.6648237 z M 85.111169,15.729301 h 48.095401 c 45.13281,0 48.09535,0.04102 48.09535,0.649947 0,1.033939 -18.2203,218.347782 -18.31548,218.449942 -0.0475,0.0412 -17.43354,5.22192 -38.63565,11.49177 -21.20211,6.26975 -38.704538,11.39895 -38.894497,11.39895 -0.22227,0 -0.345124,-43.1295 -0.345124,-120.9953 z m 85.859181,29.248679 -38.92169,0.09634 -38.921592,0.09629 v 47.48637 47.48637 l 20.039752,0.0982 20.03975,0.0977 -0.0182,1.04174 c -0.008,0.57284 -0.77314,9.67155 -1.69856,20.21961 l -1.68249,19.17857 -17.84165,3.45679 c -9.81273,1.9016 -18.105836,3.56627 -18.429579,3.69875 -0.534498,0.21832 -0.588673,1.72025 -0.588673,16.33462 0,8.85164 0.118821,16.2208 0.264459,16.37605 0.145531,0.15509 0.746791,0.18123 1.335989,0.0597 4.016596,-0.842 62.754094,-15.17938 62.949164,-15.36541 0.28885,-0.27557 8.47254,-96.21343 8.24271,-96.6304 -0.0864,-0.15699 -9.44637,-0.28527 -20.79956,-0.28527 h -20.6416 V 92.468449 76.513024 h 22.06603 22.06665 l 0.20117,-1.614517 c 0.30547,-2.451402 2.3366,-27.45961 2.3366,-28.771539 z M 36.72494,46.134728 h 32.954238 v 87.944762 c 0,70.12556 -0.0902,87.93605 -0.445335,87.90173 -0.244934,-0.0202 -16.637431,-3.49377 -36.427798,-7.71135 v -6.8e-4 c -19.790352,-4.21771 -36.1844617,-7.74528 -36.4305867,-7.8397 -0.322237,-0.12341 -0.99415,-6.65828 -2.401288,-23.34484 -1.074739,-12.74492 -1.955576,-23.81363 -1.957354,-24.59718 l -0.0028,-1.4246 H 6.7988985 21.58377 l 0.01722,1.04472 c 0.03872,2.2721 1.95714,23.60122 2.140345,23.79662 0.231947,0.24744 14.183618,2.51076 15.476542,2.51076 h 0.893427 l -0.0904,-53.27966 -0.0904,-53.279693 -16.76171,-0.09885 L 6.4063945,77.657917 5.0780555,62.181058 C 4.3474075,53.668759 3.7545515,46.576006 3.7600825,46.419283 3.7653825,46.26231 18.599232,46.134707 36.72406,46.134707 Z" />
    </g>
  </g>
</svg>
