<?xml version="1.0" encoding="UTF-8" standalone="no"?>
<!-- Created with Inkscape (http://www.inkscape.org/) -->

<svg
   version="1.1"
   id="svg42238"
   width="128"
   height="128"
   viewBox="0 0 128 128"
   xmlns="http://www.w3.org/2000/svg"
>
  <defs
     id="defs42242" />
  <g
     id="g42244"
     transform="translate(-440.00616,-466.75989)">
    <circle
       style="fill:#11b377;fill-opacity:1;stroke-width:0.133992"
       id="path42370"
       cx="504.00616"
       cy="530.75989"
       r="64" />
    <path
       style="color:#000000;fill:#64b195;stroke-width:0.133992;-inkscape-stroke:none"
       d="m 517.1871,495.4177 25.20928,3.87207 c 1.00197,0.1539 -7.62437,1.52447 -6.95475,2.26604 l 13.7588,15.23713 c 3.65059,4.04282 -5.47229,43.81312 -6.47252,43.6488 l -10.79284,3.41642 -9.7062,7.5784 -4.64152,-2.17804 -9.09996,3.56909 -6.64806,5.70775 -17.62652,4.14763 -13.47614,-4.37325 -2.75902,-11.87839 17.29899,-15.42778 c 0.74787,-0.66698 -0.57201,-4.75839 -0.42196,-5.73478 l 5.3046,-34.51681 c 0.15005,-0.97639 26.02585,-15.48818 27.02782,-15.33428 z"
       id="rect42474" />
    <path
       style="color:#000000;fill:#66eaba;stroke-width:0.133992;-inkscape-stroke:none"
       d="m 491.39299,549.22383 c 0,0 11.12488,0.20603 15.77484,2.76733 9.89132,5.44835 -13.09054,-2.98316 -15.1679,4.49064 -0.58151,2.09209 -1.197,4.18225 -1.58242,6.31683 -0.36651,2.02978 -0.87995,2.47457 -0.68963,6.14613 0.0663,1.27994 1.44447,7.78619 0.96853,7.95676 l -13.36935,4.79144 c -0.95189,0.34115 -6.56482,-4.79015 -6.63686,-5.7749 l -0.93772,-12.8195 c -0.072,-0.98476 21.53232,-14.85635 21.64051,-13.87473 z"
       id="rect48612" />
    <ellipse
       style="fill:#bcf6e1;fill-opacity:1;stroke-width:0.124269"
       id="path43475"
       cx="515.52527"
       cy="523.18823"
       rx="5.5091577"
       ry="4.4647174" />
    <ellipse
       style="fill:#bcf6e1;fill-opacity:1;stroke-width:0.124269"
       id="path43475-1"
       cx="496.30615"
       cy="520.13257"
       rx="5.5091577"
       ry="4.4647174" />
    <path
       style="color:#000000;fill:#bcf6e1;stroke-width:0.114861;-inkscape-stroke:none"
       d="m 492.0272,507.97691 h 31.53615 c 0.7454,0 1.01478,0.65934 1.34548,1.3095 l 4.30998,8.47364 c 0.3307,0.65017 -5.29002,-3.89098 -7.81045,-3.61125 -13.05955,1.44939 -31.95057,-0.72601 -31.95057,-0.72601 -0.7454,0 1.22393,-0.66471 1.22393,-1.39017 v -2.74621 c 0,-0.72547 0.60008,-1.3095 1.34548,-1.3095 z"
       id="rect43624" />
    <path
       style="color:#000000;fill:#bcf6e1;stroke-width:0.114234;-inkscape-stroke:none"
       d="m 485.50072,541.42609 16.43185,0.74154 c 1.08882,0.0491 4.08192,1.89347 4.83928,2.6564 l 3.86813,3.89663 c 0.75735,0.76293 -4.62842,-0.94038 -5.7184,-0.93718 l -19.42086,0.057 c -1.08998,0.003 -1.96748,-0.85404 -1.96748,-1.91488 v -2.58468 c 0,-1.06084 0.87866,-1.96401 1.96748,-1.91488 z"
       id="rect43981" />
    <rect
       style="fill:#bcf6e1;fill-opacity:1;stroke-width:0.112603"
       id="rect44262"
       width="20.360573"
       height="6.8016033"
       x="491.55969"
       y="527.10962"
       ry="1.9263306" />
    <path
       style="color:#000000;fill:#bcf6e1;stroke-width:0.133992;-inkscape-stroke:none"
       d="m 477.12209,484.79644 14.79748,-5.92771 c 0.93802,-0.37577 21.0321,9.83696 21.16678,10.81547 l 2.81806,20.47504 c 0.13468,0.97851 -23.23541,-2.15461 -23.71245,-1.28335 l -6.96184,12.7151 c -0.47704,0.87126 -22.32275,-6.22383 -22.29526,-7.21071 l 0.35165,-12.62435 c 0.0275,-0.98689 12.89756,-16.58372 13.83558,-16.95949 z"
       id="rect50051" />
    <path
       style="color:#000000;fill:#66eaba;stroke-width:0.133992;-inkscape-stroke:none"
       d="m 518.87506,494.57194 18.26196,4.33512 c 0.98548,0.23394 12.46559,19.55451 12.14601,20.49148 l -1.75824,5.15505 c -0.31958,0.93697 -10.70463,4.06353 -11.09107,4.97633 -2.45553,5.80011 0.90198,11.08591 1.679,16.60001 0,0 8.38712,-3.38451 8.4173,2.00956 0.0807,14.42603 -26.97427,26.31111 -28.25797,19.10722 -0.32092,-1.80098 -1.59524,-4.79501 -0.26552,-9.55618 1.32972,-4.76116 -4.59463,-15.72633 1.11798,-17.30356 5.21477,-1.43978 12.69772,-10.26845 11.18375,-15.50009 -1.31811,-4.55484 2.18304,-8.00858 1.92321,-9.3734 -1.03934,-5.45929 -24.55797,-7.19729 -24.79913,-7.27362 l -6.91575,-2.18891 c -0.96464,-0.30532 17.37299,-11.71295 18.35847,-11.47901 z"
       id="rect44389" />
    <path
       style="color:#000000;fill:#45af89;stroke-width:0.185534;-inkscape-stroke:none"
       d="m 517.7931,540.87111 c 0,0 1.73705,1.42478 2.32022,2.35154 2.47618,3.93502 3.1377,5.46198 4.66119,13.07865 0.95162,4.75763 12.65934,-14.28046 12.65934,-14.28046 1.17739,-1.32816 11.73329,5.69985 10.3437,6.81701 l -5.04964,11.60389 -21.76998,9.95761 c -1.6312,0.74611 -3.37058,-2.55303 -3.37058,-4.3072 V 553.7915 c 0,-1.75418 -1.04266,-14.18564 0.20575,-12.92039 z"
       id="rect46723" />
    <ellipse
       style="fill:#bcf6e1;fill-opacity:1;stroke-width:0.080851"
       id="path50464"
       cx="477.17789"
       cy="528.13599"
       rx="6.117075"
       ry="5.6112704" />
    <path
       style="fill:#190c18;stroke:none;stroke-width:0.133992"
       d="m 508.48739,572.82761 c 0.83095,0.26306 1.69911,0.58494 2.58059,0.63319 2.94526,0.16113 4.71078,-2.36314 6.51937,-4.20228 l -1.22239,6.87381 c 5.63668,-1.78812 10.78453,-5.19052 14.66858,-9.51758 l 0.13583,3.30471 c 3.06885,-1.48778 6.12779,-5.29614 7.47011,-8.32788 0.71563,1.6398 0.93566,4.03982 0.95074,5.8163 1.75615,-0.7971 3.20033,-3.09626 4.25511,-4.6266 2.74764,-3.98615 4.49021,-8.83933 4.95757,-13.61543 0.16896,-1.72586 -0.12278,-3.43466 0.0311,-5.15536 0.10037,-1.12347 1.51684,-2.21469 2.10359,-3.17253 1.11861,-1.82631 1.737,-3.83902 1.93992,-5.94848 0.17548,-1.82381 -0.39687,-3.98483 -1.33756,-5.55193 -0.45812,-0.76339 -1.58815,-1.65526 -1.75425,-2.51158 -0.14723,-0.75942 0.26552,-1.86902 0.35965,-2.64377 0.16135,-1.32652 0.16298,-2.90379 0,-4.23004 -0.68236,-5.55311 -3.25398,-10.8437 -7.17172,-14.93732 -1.44241,-1.50708 -3.15401,-2.62857 -4.74162,-3.96565 l 5.97609,-1.45408 c -0.92208,-1.6402 -4.13871,-2.75124 -5.84026,-3.45673 -4.71473,-1.95467 -9.96866,-2.68819 -15.07605,-2.3478 -2.09027,0.13932 -4.16221,0.69425 -6.24772,0.78136 -0.22995,-5.19937 -5.01652,-9.58671 -9.77906,-11.19056 -0.96296,-0.32426 -1.9717,-0.58361 -2.98804,-0.68407 -0.66416,-0.0657 -1.68118,0.0348 -2.27024,-0.29042 -0.77784,-0.42962 -1.28214,-1.36366 -1.94223,-1.94132 -1.69001,-1.47906 -3.63373,-2.61774 -5.83823,-3.18985 -4.08832,-1.06094 -8.89242,-0.38758 -12.22381,2.23928 -0.84969,0.67006 -1.63148,1.39551 -2.30691,2.23465 -0.39062,0.48526 -0.71156,1.25222 -1.25294,1.58785 -0.92969,0.57634 -2.3414,0.7043 -3.36698,1.17357 -1.87432,0.8575 -3.53078,2.27219 -4.7988,3.84801 -0.93811,1.1659 -1.64152,2.43187 -2.12749,3.83347 -0.24678,0.7117 -0.2639,1.88342 -0.75964,2.46003 -0.73425,0.85407 -2.27662,1.32069 -3.17969,2.07404 -2.73623,2.28263 -4.84498,5.74716 -4.88898,9.34573 -0.0914,7.47117 5.00986,14.73745 13.30983,14.93534 1.18463,0.0283 2.36776,-0.0333 3.53133,-0.26293 0.5119,-0.10099 1.33457,-0.51091 1.84389,-0.331 0.59462,0.21005 1.17281,0.90497 1.68743,1.27205 1.11631,0.79631 2.36232,1.54489 3.66715,2.00795 0.86925,0.3084 3.89519,0.47284 4.0545,1.41957 0.19137,1.13775 -0.76684,1.71132 -1.41239,2.5059 -0.66593,0.8197 -1.14958,1.77675 -1.45762,2.77583 -0.48475,1.57265 -0.55483,3.42078 -0.16543,5.02317 0.16325,0.67165 1.00018,1.85685 0.82225,2.51158 -0.19015,0.69968 -1.20499,1.41601 -1.66678,1.98283 -1.04337,1.28091 -1.91982,2.75508 -2.28993,4.36223 -0.38301,1.66386 -0.34254,3.35309 -0.0223,5.02317 0.10635,0.55466 0.66308,1.66438 0.27776,2.1667 -0.57778,0.75334 -1.94481,1.3092 -2.75797,1.80556 -1.89686,1.15784 -3.83828,2.3174 -5.56863,3.70578 -6.05717,4.86005 -8.37535,13.07874 -4.91886,20.08157 2.71518,5.50076 9.23374,9.1727 15.51284,8.42226 1.24506,-0.14884 2.52001,-0.42577 3.66714,-0.92875 0.64773,-0.28394 1.46374,-0.9318 2.17313,-0.99869 0.5699,-0.0538 1.10422,0.63623 1.49402,0.96379 0.89709,0.75374 1.72559,1.46068 2.98804,1.3856 3.1623,-0.18797 6.38844,-2.55587 8.39722,-4.74636 0.68915,-0.75136 1.06524,-1.74331 1.80356,-2.43545 1.57809,-1.47945 4.14034,-3.58125 4.19616,-5.89244 m -8.82831,-86.0548 c 4.5819,-0.56656 9.25289,0.25486 11.94484,4.36223 0.54301,0.82842 2.10535,3.42593 1.3616,4.41999 -0.3932,0.52558 -1.8242,0.71091 -2.44082,0.91157 -1.97143,0.64191 -3.84983,1.45923 -5.70445,2.36816 -2.45509,1.20318 -4.80274,2.7486 -6.79101,4.59898 -1.07461,1.00014 -1.93272,2.29968 -3.03219,3.24272 -1.11807,0.95916 -3.14627,1.13867 -4.43792,2.00979 -4.08357,2.75415 -5.58112,7.28849 -4.07461,11.79466 -1.84566,-0.37171 -3.7447,-1.17158 -5.16116,-2.40239 -0.62953,-0.547 -1.52608,-2.22579 -2.32158,-2.41905 -0.81832,-0.19868 -2.62391,1.06835 -3.51869,1.26716 -3.02051,0.67099 -6.39971,-0.074 -8.69249,-2.14172 -5.90234,-5.32298 -3.93322,-16.05616 4.7537,-17.30482 0,-3.92772 1.23189,-7.59 5.16117,-9.40006 0.95617,-0.44046 1.95201,-0.74845 2.98804,-0.9548 0.45772,-0.0912 1.05927,-2.7e-4 1.44106,-0.29994 0.66986,-0.52611 0.98007,-1.74145 1.49809,-2.43187 1.24656,-1.66135 3.04889,-2.88304 5.07424,-3.47379 4.22958,-1.23358 11.08293,1.11052 11.95218,5.85318 m 36.26399,12.16136 c -0.71047,1.01349 -3.30355,2.01733 -4.48206,2.51158 v 0.26438 c 2.12884,0.56669 4.1144,1.96393 5.84026,3.25858 6.17059,4.62938 10.29042,12.74312 8.82832,20.40318 -3.68508,-0.28301 -8.72441,0.88064 -9.50742,5.15536 l 2.58059,1.1897 c 1.90501,-4.29613 7.77584,-3.78232 9.50741,0.26438 l -0.40746,-0.39657 -0.81492,0.66094 c -1.70237,-0.48037 -3.07293,-1.05618 -4.75371,-0.0689 -1.62033,0.95189 -4.16805,3.75813 -2.0373,5.22423 l -2.85223,4.89098 c 3.4876,-0.78533 7.22265,-2.81681 5.56863,-6.74162 3.38668,-1.72771 4.88708,2.3363 2.8271,4.6266 -1.28948,1.43359 -3.07171,2.55084 -5.00022,2.9519 -0.72936,0.15163 -2.83117,-0.13139 -3.31361,0.30562 -1.03141,0.93418 -0.24936,2.89401 0.86885,3.2529 2.25475,0.7236 4.0784,0.0144 6.24772,-0.56193 0,4.72971 -1.12798,9.02465 -3.3955,13.21886 h -0.13582 c -0.36318,-2.7823 -1.50448,-5.40757 -3.39551,-7.53475 -0.0763,3.5987 -1.64532,8.61658 -4.61788,10.97166 -0.0576,-1.30708 -0.39402,-3.26282 -1.3582,-4.23004 -0.22112,1.20715 -1.11645,2.30934 -1.81239,3.30472 -1.65198,2.36274 -3.71835,4.3535 -6.06518,6.06389 -0.94817,0.69108 -1.97456,1.53827 -3.12387,1.86742 l 0.27164,-5.15535 -2.98804,1.71845 c -0.0852,-1.01494 -0.9483,-2.20874 -0.83679,-3.17253 0.0709,-0.61335 0.63727,-1.10972 0.78558,-1.71845 0.18268,-0.74977 -0.1422,-1.52599 0.0338,-2.24721 0.24298,-0.99604 1.10884,-1.91686 1.46455,-2.90815 0.81261,-2.26478 0.97831,-4.90102 0.68712,-7.27037 -0.37555,-3.05607 -1.47501,-6.26667 -3.20251,-8.85664 -0.72188,-1.08223 -2.22107,-2.01931 -2.7183,-3.17253 -0.21813,-0.50588 0.14655,-1.2 0.21595,-1.71845 0.10784,-0.80569 -0.0612,-1.57926 -0.0966,-2.37939 l 2.85223,0.72465 2.85222,-0.46028 -0.13582,0.52876 c 4.19739,-1.05963 6.11191,-3.9568 6.11191,-8.06351 h 0.13582 c 0.50946,1.04773 0.98782,2.16062 1.20948,3.30472 0.15361,0.79326 0.19694,1.57978 0.0686,2.37939 -0.88542,5.51716 -6.81288,5.68411 -11.32877,5.68411 v 0.13219 c 1.7222,0.86954 2.79138,2.54463 4.75371,3.11437 5.2193,1.51554 9.92275,-2.49044 10.43493,-7.47659 0.15443,-1.50272 -0.0518,-3.05607 -0.50444,-4.49442 -0.20997,-0.66728 -0.93471,-1.68421 -0.83203,-2.37939 0.14546,-0.98441 1.32846,-2.14556 1.67602,-3.17253 1.16208,-3.43254 0.477,-7.18657 -1.79513,-10.04633 -3.72297,-4.68583 -10.19779,-6.33739 -16.042,-5.79383 -1.3726,0.12756 -2.75063,0.3852 -4.0746,0.75215 -0.68617,0.19009 -1.45722,0.62816 -2.17313,0.64072 -0.83556,0.0147 -1.79432,-0.70496 -2.58058,-0.97317 -1.62957,-0.55586 -3.30736,-0.839 -5.02535,-0.97093 1.92077,-2.59909 5.74954,-4.30287 8.69249,-5.53209 5.89188,-2.46083 12.70571,-4.03162 19.15065,-3.43426 2.69046,0.2493 5.13523,0.97687 7.74175,1.56379 m -7.87757,23.66176 h -0.13582 c -0.25928,-1.21904 -0.79944,-2.32017 -1.58434,-3.30471 -0.6628,-0.83121 -1.44459,-1.58124 -2.35444,-2.15481 -2.15438,-1.35797 -4.82352,-1.84654 -7.3343,-1.35493 -2.66017,0.52095 -5.37454,1.88593 -8.14921,1.48712 -3.19761,-0.45962 -2.09163,-3.31212 -1.08656,-5.24776 -2.30106,0.1162 -3.44426,2.6599 -3.53132,4.6266 -3.18444,0.6394 -5.85657,-1.924 -9.09996,-1.70668 -2.53223,0.16973 -3.36698,1.76088 -5.29698,2.89638 -0.004,-1.39869 -0.0405,-2.66069 0.58715,-3.96566 1.8951,-3.93948 7.35249,-4.96619 11.36502,-4.28093 1.20093,0.20516 2.40728,0.49095 3.53133,0.95943 0.65981,0.27495 1.43779,0.89611 2.17312,0.89267 1.99208,-0.01 4.22211,-1.12466 6.24773,-1.36683 6.11843,-0.73127 14.36543,1.2398 15.34768,8.15789 0.21894,1.54211 -0.26784,2.89533 -0.6791,4.36222 m -32.18735,-4.28238 c 1.43209,-0.52294 2.23818,1.46068 0.80745,2.01508 -1.46129,0.56617 -2.24959,-1.48844 -0.80745,-2.01508 m 18.33383,0.90338 c 1.49103,-0.37925 2.09176,1.79234 0.67693,2.23517 -1.67847,0.52532 -2.36803,-1.80516 -0.67693,-2.23517 m -20.50899,0.47085 c 0.003,4.30975 5.67661,4.18576 6.51937,0.26438 1.55867,0.96141 1.87079,5.0315 -0.0126,5.93963 -0.69581,0.33536 -2.17136,-0.25882 -2.97541,-0.25539 -1.53314,0.007 -2.89732,0.61376 -4.21043,1.32176 -1.24411,-2.27748 -1.81496,-5.47856 0.6791,-7.27038 m 18.06409,1.58627 c 0.10091,2.14304 2.43036,3.54001 4.48206,2.83571 1.71419,-0.58837 2.70174,-2.02989 2.71641,-3.76103 3.09534,0.54527 3.90388,4.74676 2.78187,7.13818 -0.85173,1.81495 -2.85046,2.82633 -4.81917,3.01774 -2.37985,0.23146 -3.08217,-0.86121 -4.75371,-2.15653 -0.55985,-0.43397 -1.51073,-0.77714 -1.85829,-1.40384 -0.83475,-1.50471 -0.16991,-4.89931 1.45083,-5.67023 m -35.99235,0.72241 c -0.83326,0.14593 -1.61653,0.46755 -2.30895,0.9392 -5.56577,3.79117 -1.67031,12.25045 4.88953,11.09935 4.22442,-0.74132 6.1877,-5.71214 4.11793,-9.19187 -1.35765,-2.28277 -4.09104,-3.30353 -6.69851,-2.84668 m 28.38642,1.3926 c 0.79618,0.73471 1.60661,1.1667 2.7164,1.1897 v 1.85064 l -4.48206,0.66095 1.76566,-3.70129 m -27.84314,1.62976 c 3.90008,-0.68381 5.40754,5.17981 1.49402,5.86151 -3.90497,0.67997 -5.37671,-5.18061 -1.49402,-5.86151 m 25.12673,4.7153 c 3.44196,-2.38045 10.09335,-2.40557 11.05373,2.64377 0.12686,0.66716 0.24081,1.31647 0.0835,1.98283 h -0.13582 l -0.54328,-0.52875 c -0.82959,2.17199 -3.06981,2.5281 -5.02535,3.30471 v 0.26438 c 1.9459,0.53219 4.20418,0.56101 5.96387,1.63425 2.37549,1.44905 3.4171,5.66177 3.92384,8.14771 0.42104,2.06478 0.41806,4.13605 -0.83665,5.94849 -0.29419,0.42511 -0.84426,1.30972 -1.43223,1.36009 -0.63237,0.0541 -1.522,-1.11092 -1.91438,-1.49228 -1.56343,-1.51925 -3.17697,-3.35125 -5.02535,-4.54227 -1.18245,-0.7618 -3.1206,-1.22644 -4.48206,-1.72665 -5.90003,-2.16776 -12.74456,-3.37517 -18.19991,0.32043 -0.89112,-3.08621 2.99959,-3.91622 5.43281,-4.43837 6.61947,-1.4205 12.07387,0.85275 17.92826,3.51305 -4.25389,-4.227 -9.44167,-7.30435 -15.75514,-6.71915 -2.32714,0.2156 -4.29979,0.97291 -6.51937,1.56379 1.71514,-2.92983 4.25715,-4.93698 7.60593,-5.68411 l -1.36431,-1.85064 -0.67299,-1.98283 c 0.4823,-1.20979 1.05885,-2.29162 2.17312,-3.06823 2.14637,-1.49598 6.76548,-1.60702 7.74175,1.34978 m -11.40889,-2.11502 0.29242,1.71845 -0.87658,1.98283 -0.36658,3.04034 h -0.13582 c -0.97791,-2.8135 -1.023,-4.24418 0.81492,-6.74162 h 0.27164 m 7.74175,8.32788 h 0.13582 c -1.4e-4,-1.7084 -0.41982,-2.56644 1.49402,-3.17252 -0.21785,-1.41495 -1.31148,-2.89017 -2.85222,-3.10551 -1.30768,-0.18268 -3.03857,1.18586 -2.67267,2.56446 0.17575,0.6624 1.19603,1.02314 1.72193,1.39076 0.92466,0.6464 1.54332,1.41428 2.17312,2.32281 m 2.7164,0.26438 c 1.99085,-0.69333 3.73112,-1.22658 5.84027,-1.53061 1.03305,-0.14884 2.14419,-0.28421 2.73555,-1.24588 0.59612,-0.96921 -0.2859,-2.26492 -1.24153,-2.64205 -1.00412,-0.3963 -2.41841,-0.0898 -3.3955,0.24534 -0.74932,0.25697 -2.6121,0.97634 -2.72714,1.87047 -0.0652,0.50641 0.60223,0.7926 0.33181,1.3199 -0.37948,0.74013 -1.18462,1.19909 -1.54346,1.98283 m 47.40125,-4.89098 0.27164,0.26438 -0.27164,-0.26438 m -36.12817,2.3794 0.13582,0.13219 -0.13582,-0.13219 m -3.53133,12.42573 0.13582,0.13219 -0.13582,-0.13219 m -13.31038,8.72445 v 0.13219 c 2.35553,1.14171 4.54292,3.23148 6.65519,4.77267 2.2189,1.61904 4.98895,3.07907 6.91216,5.02118 1.23665,1.24879 0.3295,2.81496 -1.20771,3.30829 -0.99475,0.3191 -2.1503,-0.90616 -2.85222,-1.44178 -2.08593,-1.59195 -4.37559,-3.94041 -6.79101,-5.01577 -0.8065,-0.35902 -1.43032,0.54409 -2.17312,0.7006 -0.75544,0.15902 -1.39963,-0.44217 -2.03731,-0.73576 v 0.13219 c 2.32389,1.16709 4.4185,3.30815 6.51937,4.84167 1.65918,1.21098 3.96907,2.42513 5.2538,4.02012 0.99692,1.23782 -0.42851,2.80689 -1.72247,3.07577 -0.90103,0.18731 -1.93463,-0.94951 -2.58059,-1.43861 -1.86807,-1.41429 -4.0928,-3.64299 -6.24569,-4.57069 -0.53594,-0.23093 -1.00493,0.31514 -1.4966,0.46663 -0.76168,0.2345 -1.3237,0.1002 -2.03676,-0.18203 2.04314,1.83161 4.32044,3.42025 6.51937,5.0693 1.0306,0.77291 2.35838,1.53736 3.20074,2.50511 1.28703,1.4784 -0.7371,3.03201 -2.25,2.80465 -1.74271,-0.26187 -3.72405,-2.08819 -5.16117,-3.02051 -0.52481,-0.34052 -1.11603,-0.90378 -1.76566,-0.97159 -2.56958,-0.26821 -5.04558,2.27669 -6.92683,3.56407 -4.08208,2.79368 -9.40107,2.97292 -12.39373,-1.35877 -3.28956,-4.76156 -1.97238,-11.51376 1.82298,-15.59812 2.65352,-2.85581 6.58484,-4.87287 9.89165,-6.92867 1.63541,-1.01666 3.25805,-2.05434 4.88953,-3.07709 0.87033,-0.54554 1.77571,-1.29849 2.85222,-1.35691 3.04387,-0.16511 6.34321,0.58202 9.37159,0.89769 1.36092,0.14197 3.24393,0.0387 4.48207,0.64164 1.6077,0.78296 2.86581,2.52957 4.21043,3.66639 1.14808,0.97079 2.14758,2.09638 3.25968,3.10471 0.69635,0.6312 1.64641,1.24575 2.0369,2.12679 0.50307,1.1351 -0.85513,2.59763 -1.90108,2.88792 -0.98714,0.27403 -1.74081,-0.947 -2.3429,-1.53299 -1.69626,-1.65091 -3.63251,-3.8644 -5.67049,-5.09032 -0.75883,-0.45645 -2.1097,-0.39313 -2.98805,-0.51184 -2.43131,-0.32888 -4.95961,-0.29663 -7.33429,-0.90813 m -0.13582,-0.13219 0.13582,0.13219 -0.13582,-0.13219 m -1.49402,6.74162 0.13582,0.13219 -0.13582,-0.13219 m -2.44476,6.21287 0.27164,0.26437 z"
       id="path42248" />
  </g>
</svg>
