<?xml version="1.0" encoding="UTF-8" standalone="no"?>
<!-- Created with Inkscape (http://www.inkscape.org/) -->

<svg
   width="190.86131mm"
   height="171.23141mm"
   viewBox="0 0 190.86131 171.23143"
   version="1.1"
   id="svg6261"
   xmlns:xlink="http://www.w3.org/1999/xlink"
   xmlns="http://www.w3.org/2000/svg"
   >
  <defs
     id="defs6258">
    <linearGradient
       id="linearGradient149414">
      <stop
         style="stop-color:#b187de;stop-opacity:1;"
         offset="0"
         id="stop149410" />
      <stop
         style="stop-color:#b187de;stop-opacity:0;"
         offset="1"
         id="stop149412" />
    </linearGradient>
    <linearGradient
       id="linearGradient146892">
      <stop
         style="stop-color:#caac35;stop-opacity:1;"
         offset="0"
         id="stop146888" />
      <stop
         style="stop-color:#caac35;stop-opacity:0;"
         offset="1"
         id="stop146890" />
    </linearGradient>
    <clipPath
       clipPathUnits="userSpaceOnUse"
       id="clipath_lpe_path-effect160124">
      <path
         id="lpe_path-effect160124"
         style="fill:#deaa87;fill-opacity:1;stroke:none;stroke-width:0.364;stroke-miterlimit:4;stroke-dasharray:1.092, 0.364;stroke-dashoffset:0;stroke-opacity:1"
         class="powerclip"
         d="M 46.678875,56.59467 H 186.11419 V 298.43192 H 46.678875 Z M -3727.577,-2363.1921 c -1.0007,0 -1.8063,0.8056 -1.8063,1.8062 v 5683.8831 c 0,1.0007 0.8056,1.8063 1.8063,1.8063 h 1296.6537 c 1.0006,0 1.8062,-0.8056 1.8062,-1.8063 v -5683.8831 c 0,-1.0006 -0.8056,-1.8062 -1.8062,-1.8062 z" />
    </clipPath>
    <clipPath
       clipPathUnits="userSpaceOnUse"
       id="clipath_lpe_path-effect160220">
      <path
         id="lpe_path-effect160220"
         style="fill:#deaa87;fill-opacity:1;stroke:none;stroke-width:0.364;stroke-miterlimit:4;stroke-dasharray:1.092, 0.364;stroke-dashoffset:0;stroke-opacity:1"
         class="powerclip"
         d="m 67.8462,256.01413 h 36.5368 v 34.29336 H 67.8462 Z M -3738.7452,-2302.1472 c -1.0007,0 -1.8063,0.8056 -1.8063,1.8063 v 5683.883 c 0,1.0007 0.8056,1.8063 1.8063,1.8063 h 1296.6537 c 1.0006,0 1.8062,-0.8056 1.8062,-1.8063 v -5683.883 c 0,-1.0007 -0.8056,-1.8063 -1.8062,-1.8063 z" />
    </clipPath>
    <clipPath
       clipPathUnits="userSpaceOnUse"
       id="clipath_lpe_path-effect160224">
      <path
         id="lpe_path-effect160224"
         style="fill:#deaa87;fill-opacity:1;stroke:none;stroke-width:0.364;stroke-miterlimit:4;stroke-dasharray:1.092, 0.364;stroke-dashoffset:0;stroke-opacity:1"
         class="powerclip"
         d="m 114.78062,255.50318 h 36.53326 v 34.21933 H 114.78062 Z M -3738.7452,-2302.1472 c -1.0007,0 -1.8063,0.8056 -1.8063,1.8063 v 5683.883 c 0,1.0007 0.8056,1.8063 1.8063,1.8063 h 1296.6537 c 1.0006,0 1.8062,-0.8056 1.8062,-1.8063 v -5683.883 c 0,-1.0007 -0.8056,-1.8063 -1.8062,-1.8063 z" />
    </clipPath>
    <clipPath
       clipPathUnits="userSpaceOnUse"
       id="clipath_lpe_path-effect160228">
      <path
         id="lpe_path-effect160228"
         style="fill:#deaa87;fill-opacity:1;stroke:none;stroke-width:0.435489;stroke-miterlimit:4;stroke-dasharray:1.30646, 0.435489;stroke-dashoffset:0;stroke-opacity:1"
         class="powerclip"
         d="M 1.9745059,359.41345 H 46.261703 v 58.30513 H 1.9745059 Z M -4104.2617,-3156.187 c -1.3258,0 -2.3931,1.0673 -2.3931,2.393 v 7530.3555 c 0,1.3258 1.0673,2.3931 2.3931,2.3931 h 1400.0044 c 1.3257,0 2.393,-1.0673 2.393,-2.3931 V -3153.794 c 0,-1.3257 -1.0673,-2.393 -2.393,-2.393 z" />
    </clipPath>
    <clipPath
       clipPathUnits="userSpaceOnUse"
       id="clipath_lpe_path-effect160232">
      <path
         id="lpe_path-effect160232"
         style="fill:#deaa87;fill-opacity:1;stroke:none;stroke-width:0.435489;stroke-miterlimit:4;stroke-dasharray:1.30646, 0.435489;stroke-dashoffset:0;stroke-opacity:1"
         class="powerclip"
         d="M 1.9745059,359.41345 H 46.261703 v 58.30513 H 1.9745059 Z M -4162.9653,-3154.6125 c -1.3258,0 -2.3931,1.0673 -2.3931,2.393 V 4378.136 c 0,1.3258 1.0673,2.3931 2.3931,2.3931 h 1400.0044 c 1.3257,0 2.393,-1.0673 2.393,-2.3931 v -7530.3555 c 0,-1.3257 -1.0673,-2.393 -2.393,-2.393 z" />
    </clipPath>
    <clipPath
       clipPathUnits="userSpaceOnUse"
       id="clipPath30755">
      <ellipse
         style="display:none;fill:#ff0000;fill-opacity:1;stroke-width:0.318164"
         id="ellipse30757"
         cx="170.89003"
         cy="78.033302"
         rx="4.6461563"
         ry="4.0487933" />
      <path
         id="lpe_path-effect30759"
         style="fill:#ff0000;fill-opacity:1;stroke-width:0.318164"
         class="powerclip"
         d="m 159.51817,68.143775 h 22.56675 v 20.177294 h -22.56675 z m 16.01802,9.889527 a 4.6461563,4.0487933 0 0 0 -4.64616,-4.048793 4.6461563,4.0487933 0 0 0 -4.64616,4.048793 4.6461563,4.0487933 0 0 0 4.64616,4.048794 4.6461563,4.0487933 0 0 0 4.64616,-4.048794 z" />
    </clipPath>
    <filter
       style="color-interpolation-filters:sRGB"
       id="filter39276"
       x="-2.7017756"
       y="-1.9722432"
       width="6.4035511"
       height="4.9444866">
      <feGaussianBlur
         stdDeviation="20.7222 12.5087"
         result="blur"
         id="feGaussianBlur39274" />
    </filter>
    <filter
       style="color-interpolation-filters:sRGB"
       id="filter142465"
       x="-0.19282395"
       y="-0.28016213"
       width="1.3856479"
       height="1.5603242">
      <feGaussianBlur
         stdDeviation="7.7501593"
         result="blur"
         id="feGaussianBlur142463" />
    </filter>
    <radialGradient
       xlink:href="#linearGradient146892"
       id="radialGradient146894"
       cx="3.2540042"
       cy="-56.754803"
       fx="3.2540042"
       fy="-56.754803"
       r="64.830482"
       gradientTransform="matrix(3.3713802,2.1708768,-1.0010047,1.06941,-137.32682,103.99247)"
       gradientUnits="userSpaceOnUse" />
    <radialGradient
       xlink:href="#linearGradient149414"
       id="radialGradient149416"
       cx="134.50702"
       cy="-5.8669333"
       fx="134.50702"
       fy="-5.8669333"
       r="64.830482"
       gradientTransform="matrix(-2.6779701,-0.38763032,0.25613504,-1.7294627,661.25951,154.21475)"
       gradientUnits="userSpaceOnUse" />
    <filter
       style="color-interpolation-filters:sRGB"
       id="filter149668"
       x="-0.67179465"
       y="-0.53147882"
       width="2.3435893"
       height="2.0629575">
      <feGaussianBlur
         stdDeviation="9.3833403"
         result="fbSourceGraphic"
         id="feGaussianBlur149666" />
      <feColorMatrix
         result="fbSourceGraphicAlpha"
         in="fbSourceGraphic"
         values="0 0 0 -1 0 0 0 0 -1 0 0 0 0 -1 0 0 0 0 1 0"
         id="feColorMatrix149688" />
      <feGaussianBlur
         id="feGaussianBlur149690"
         stdDeviation="18.2225 21.4364"
         result="blur"
         in="fbSourceGraphic" />
    </filter>
    <filter
       style="color-interpolation-filters:sRGB"
       id="filter149668-9"
       x="-0.48956344"
       y="-0.40234375"
       width="1.9791269"
       height="1.8046875">
      <feGaussianBlur
         stdDeviation="1.8949715"
         result="fbSourceGraphic"
         id="feGaussianBlur149666-4" />
      <feColorMatrix
         result="fbSourceGraphicAlpha"
         in="fbSourceGraphic"
         values="0 0 0 -1 0 0 0 0 -1 0 0 0 0 -1 0 0 0 0 1 0"
         id="feColorMatrix149688-6" />
      <feGaussianBlur
         id="feGaussianBlur149690-9"
         stdDeviation="18.2225 21.4364"
         result="blur"
         in="fbSourceGraphic" />
    </filter>
    <filter
       style="color-interpolation-filters:sRGB"
       id="filter149668-9-2"
       x="-0.5191865"
       y="-0.42333564"
       width="2.038373"
       height="1.8466713">
      <feGaussianBlur
         stdDeviation="3.1122617"
         result="fbSourceGraphic"
         id="feGaussianBlur149666-4-4" />
      <feColorMatrix
         result="fbSourceGraphicAlpha"
         in="fbSourceGraphic"
         values="0 0 0 -1 0 0 0 0 -1 0 0 0 0 -1 0 0 0 0 1 0"
         id="feColorMatrix149688-6-7" />
      <feGaussianBlur
         id="feGaussianBlur149690-9-7"
         stdDeviation="18.2225 21.4364"
         result="blur"
         in="fbSourceGraphic" />
    </filter>
    <filter
       style="color-interpolation-filters:sRGB"
       id="filter149668-9-2-4"
       x="-0.5191865"
       y="-0.42333564"
       width="2.038373"
       height="1.8466713">
      <feGaussianBlur
         stdDeviation="3.1122617"
         result="fbSourceGraphic"
         id="feGaussianBlur149666-4-4-8" />
      <feColorMatrix
         result="fbSourceGraphicAlpha"
         in="fbSourceGraphic"
         values="0 0 0 -1 0 0 0 0 -1 0 0 0 0 -1 0 0 0 0 1 0"
         id="feColorMatrix149688-6-7-1" />
      <feGaussianBlur
         id="feGaussianBlur149690-9-7-2"
         stdDeviation="18.2225 21.4364"
         result="blur"
         in="fbSourceGraphic" />
    </filter>
    <linearGradient
       id="linearGradient61943">
      <stop
         style="stop-color:#16191d;stop-opacity:1;"
         offset="0"
         id="stop61939" />
      <stop
         style="stop-color:#16191d;stop-opacity:0;"
         offset="1"
         id="stop61941" />
    </linearGradient>
    <linearGradient
       id="linearGradient61524">
      <stop
         style="stop-color:#bac7d7;stop-opacity:1;"
         offset="0"
         id="stop61520" />
      <stop
         style="stop-color:#bac7d7;stop-opacity:0;"
         offset="1"
         id="stop61522" />
    </linearGradient>
    <linearGradient
       id="linearGradient59407">
      <stop
         style="stop-color:#ffeeaa;stop-opacity:1;"
         offset="0"
         id="stop59403" />
      <stop
         style="stop-color:#ffeeaa;stop-opacity:0;"
         offset="1"
         id="stop59405" />
    </linearGradient>
    <linearGradient
       xlink:href="#linearGradient44158"
       id="linearGradient44160"
       x1="-14811.454"
       y1="62.514732"
       x2="-8640.0469"
       y2="-274.82904"
       gradientUnits="userSpaceOnUse"
       gradientTransform="matrix(0.03479067,0,0,0.04076226,216.1638,24.26437)" />
    <linearGradient
       id="linearGradient44158">
      <stop
         style="stop-color:#cdde87;stop-opacity:1;"
         offset="0"
         id="stop44154" />
      <stop
         style="stop-color:#cdde87;stop-opacity:0;"
         offset="1"
         id="stop44156" />
    </linearGradient>
    <linearGradient
       xlink:href="#linearGradient59407"
       id="linearGradient59409"
       x1="-3.2429342"
       y1="-12.176011"
       x2="-4.5530858"
       y2="68.435249"
       gradientUnits="userSpaceOnUse" />
    <filter
       style="color-interpolation-filters:sRGB"
       id="filter59928"
       x="-0.36970815"
       y="-0.34068138"
       width="1.7394163"
       height="1.6813628">
      <feGaussianBlur
         stdDeviation="4.97404 4.26489"
         result="blur"
         id="feGaussianBlur59926" />
    </filter>
    <linearGradient
       xlink:href="#linearGradient61524"
       id="linearGradient61526"
       x1="41.597084"
       y1="33.376202"
       x2="64.703789"
       y2="68.553909"
       gradientUnits="userSpaceOnUse" />
    <linearGradient
       xlink:href="#linearGradient61943"
       id="linearGradient61945"
       x1="144.24976"
       y1="68.685959"
       x2="57.288086"
       y2="23.219061"
       gradientUnits="userSpaceOnUse" />
  </defs>
  <g
     id="layer1"
     transform="matrix(1,0,0,1.0528741,-3.528805,-0.90301949)">
    <rect
       style="fill:#869bb4;fill-opacity:1;stroke-width:0.268045"
       id="rect58220"
       width="265.74655"
       height="172.48659"
       x="-32.95002"
       y="-15.617696"
       ry="24.449802" />
    <rect
       style="fill:url(#linearGradient59409);fill-opacity:1;stroke-width:0.268045"
       id="rect58220-1"
       width="265.74655"
       height="172.48659"
       x="-32.950005"
       y="-15.617695"
       ry="24.449802" />
    <ellipse
       style="fill:#ffcc00;fill-opacity:1;stroke-width:0.338295;filter:url(#filter59928)"
       id="path59224-5"
       cx="18.492306"
       cy="27.378954"
       rx="16.144756"
       ry="15.022448"
       transform="matrix(1.2506261,0,0,1.192885,-0.42206432,-3.9467903)" />
    <ellipse
       style="fill:#ffe680;fill-opacity:1;stroke-width:0.338295"
       id="path59224"
       cx="22.253517"
       cy="27.014957"
       rx="16.144756"
       ry="15.022448" />
    <path
       style="color:#000000;fill:#232c36;stroke-width:0.320561;-inkscape-stroke:none"
       d="M 61.951022,-7.4365058 119.74359,54.520512 c 0.37717,0.404349 89.27188,32.603285 89.28917,33.288666 l 1.2651,50.170982 c 0.0173,0.68537 -0.376,1.23752 -0.84305,1.23752 H -14.979019 c -0.467053,0 8.4257316,-16.29099 8.634653,-16.90416 L 17.449331,52.480795 C 17.658257,51.867613 61.573849,-7.8408563 61.951022,-7.4365058 Z"
       id="rect50673" />
    <path
       style="color:#000000;fill:url(#linearGradient61945);fill-opacity:1;stroke-width:0.320561;-inkscape-stroke:none"
       d="M 61.951022,-7.4365058 119.74359,54.520512 c 0.37717,0.404349 89.27188,32.603286 89.28917,33.288666 l 1.2651,50.170982 c 0.0173,0.68537 -0.376,1.23752 -0.84305,1.23752 H -14.979019 c -0.467053,0 8.425732,-16.29099 8.634653,-16.90416 L 17.449331,52.480795 C 17.658257,51.867613 61.573849,-7.8408558 61.951022,-7.4365058 Z"
       id="rect50673-7" />
    <path
       style="fill:#232212;fill-opacity:1;stroke-width:0.494679"
       id="path22897"
       d="m 212.21996,139.95659 a 114.28356,51.393345 0 0 1 -57.55448,44.61457 114.28356,51.393345 0 0 1 -114.693266,-0.32221 114.28356,51.393345 0 0 1 -56.310462,-44.93447 l 114.274642,0.64211 z" />
    <ellipse
       style="fill:#6a721b;fill-opacity:1;stroke-width:0.149704"
       id="path21621"
       cx="98.164055"
       cy="140.03789"
       rx="114.57823"
       ry="16.832947" />
    <path
       style="color:#000000;fill:#343623;stroke-width:0.264583;-inkscape-stroke:none"
       d="M -0.93294033,148.45018 C -29.459664,143.45303 -20.438655,128.91621 31.844306,126.25451 l 179.596624,10.99667 c 8.16671,8.23647 -22.66698,13.15865 -26.145,14.90675 z"
       id="rect47955" />
    <path
       style="color:#000000;fill:#617082;stroke-width:0.264583;-inkscape-stroke:none"
       d="M 83.479162,87.525061 100.767,96.157974 128.36953,120.89624 89.277771,112.69646 Z"
       id="rect57255" />
    <g
       id="g47329"
       transform="matrix(0.24977389,0,0,0.19810527,110.46949,99.894343)">
      <path
         style="color:#000000;fill:#000000;stroke-width:1.37235;-inkscape-stroke:none"
         d="m -332.50474,35.44062 a 30.60673,47.72369 0 0 1 -30.60673,47.72369 30.60673,47.72369 0 0 1 -30.60673,-47.72369 30.60673,47.72369 0 0 1 30.60673,-47.72369 30.60673,47.72369 0 0 1 30.60673,47.72369 z"
         id="path44815" />
      <path
         style="color:#000000;fill:#1a1a1a;stroke-width:1.37235;-inkscape-stroke:none"
         d="m -317.51545,37.61597 a 30.60673,47.72369 0 0 1 -30.60673,47.72369 30.60673,47.72369 0 0 1 -30.60673,-47.72369 30.60673,47.72369 0 0 1 30.60673,-47.72369 30.60673,47.72369 0 0 1 30.60673,47.72369 z"
         id="path44815-4" />
      <path
         style="color:#000000;fill:#000000;stroke-width:0.00996374;-inkscape-stroke:none"
         d="m -140.5799,133.31464 a 22.782454,26.962536 0 0 1 -22.78246,26.96254 22.782454,26.962536 0 0 1 -22.78245,-26.96254 22.782454,26.962536 0 0 1 22.78245,-26.96253 22.782454,26.962536 0 0 1 22.78246,26.96253 z"
         id="path11046" />
      <path
         style="color:#000000;fill:#000000;stroke-width:0.00996374;-inkscape-stroke:none"
         d="m -267.03407,121.72077 a 22.782454,26.962536 0 0 1 -22.78245,26.96254 22.782454,26.962536 0 0 1 -22.78245,-26.96254 22.782454,26.962536 0 0 1 22.78245,-26.96254 22.782454,26.962536 0 0 1 22.78245,26.96254 z"
         id="path11046-6" />
      <path
         style="color:#000000;fill:#3a8062;stroke-width:0.00996374;-inkscape-stroke:none"
         d="m -315.57068,-28.43097 137.64747,9.94034 c 29.18595,2.10769 51.44465,27.32942 49.90739,56.55097 l -2.57662,48.97886 c -1.53725,29.22155 -26.27109,51.04967 -55.45704,48.94198 l -137.64747,-9.94034 c -29.18594,-2.10768 -51.44464,-27.32941 -49.90739,-56.55096 l 2.57662,-48.97886 c 1.53725,-29.22155 26.27109,-51.04967 55.45704,-48.94199 z"
         id="rect10017" />
      <path
         style="color:#000000;fill:#468e6f;stroke-width:0.0110648;-inkscape-stroke:none"
         d="m -177.48696,-16.16622 h 58.45596 c 18.86847,0 34.05862,17.79743 34.05862,39.90456 v 71.18109 c 0,22.10712 -15.19015,39.90455 -34.05862,39.90455 h -58.45596 c -18.86848,0 -34.05864,-17.79743 -34.05864,-39.90455 V 23.73834 c 0,-22.10713 15.19016,-39.90456 34.05864,-39.90456 z"
         id="rect10140" />
      <path
         style="color:#000000;fill:#2c7556;stroke-width:0.264523;-inkscape-stroke:none"
         d="m -202.49849,135.65899 a 35.467879,31.848151 84.257639 0 0 -15.16178,-31.59201 35.467879,31.848151 84.257639 0 0 -31.92695,-1.722 35.467879,31.848151 84.257639 0 0 -16.6605,29.87566 l 31.87706,1.61873 z"
         id="path23383" />
      <path
         style="color:#000000;fill:#2c7556;stroke-width:0.264544;-inkscape-stroke:none"
         d="m -300.95297,127.74318 a 30.815185,29.594367 73.960112 0 0 -14.11708,-27.39282 30.815185,29.594367 73.960112 0 0 -29.72707,-1.49306 30.815185,29.594367 73.960112 0 0 -15.51255,25.90462 l 29.68063,1.40357 z"
         id="path23383-4" />
      <path
         style="color:#000000;fill:#000000;stroke-width:0.0102455;-inkscape-stroke:none"
         d="m -201.9617,139.78565 a 31.875414,32.894295 0 0 1 -31.87542,32.8943 31.875414,32.894295 0 0 1 -31.87541,-32.8943 31.875414,32.894295 0 0 1 31.87541,-32.89429 31.875414,32.894295 0 0 1 31.87542,32.89429 z"
         id="path10838" />
      <path
         style="color:#000000;fill:#dde9af;stroke-width:0.00844909;-inkscape-stroke:none"
         d="m -213.68573,139.23682 a 25.154497,28.347343 0 0 1 -25.1545,28.34735 25.154497,28.347343 0 0 1 -25.1545,-28.34735 25.154497,28.347343 0 0 1 25.1545,-28.34734 25.154497,28.347343 0 0 1 25.1545,28.34734 z"
         id="path10838-3" />
      <path
         style="color:#000000;fill:#000000;stroke-width:0.00740791;-inkscape-stroke:none"
         d="m -218.46253,139.98786 a 21.919479,25.007753 0 0 1 -21.91948,25.00775 21.919479,25.007753 0 0 1 -21.91948,-25.00775 21.919479,25.007753 0 0 1 21.91948,-25.00775 21.919479,25.007753 0 0 1 21.91948,25.00775 z"
         id="path10838-1" />
      <path
         style="color:#000000;fill:#bcdbcd;stroke-width:0.00498038;-inkscape-stroke:none"
         d="m -228.15375,140.05805 a 14.458729,17.13592 0 0 1 -14.45873,17.13592 14.458729,17.13592 0 0 1 -14.45873,-17.13592 14.458729,17.13592 0 0 1 14.45873,-17.13592 14.458729,17.13592 0 0 1 14.45873,17.13592 z"
         id="path10838-3-6" />
      <path
         style="color:#000000;fill:#d8e9e1;stroke-width:0.00369062;-inkscape-stroke:none"
         d="m -238.79085,139.47285 a 11.041535,12.321908 0 0 1 -11.04154,12.3219 11.041535,12.321908 0 0 1 -11.04153,-12.3219 11.041535,12.321908 0 0 1 11.04153,-12.32191 11.041535,12.321908 0 0 1 11.04154,12.32191 z"
         id="path10838-3-6-2" />
      <path
         style="color:#000000;fill:#dde9af;stroke-width:0.00571785;-inkscape-stroke:none"
         d="m -233.48851,-23.74402 c 80.87177,5.5116 118.12239,7.71732 118.12239,7.71732 23.4863,1.03913 30.30749,23.96758 30.32176,28.99556 l 0.1673,58.95042 c 0.0143,5.02798 -39.24002,28.57582 -50.64889,54.5593 0,0 -50.92712,-70.6795 -89.55821,-74.01567 -97.99542,-8.46287 -86.7699,-2.12472 -140.65345,-6.23822 -5.55741,-0.42425 -6.38847,-20.24069 -5.62727,-25.18897 0,0 -0.4528,-14.5287 10.93458,-31.38253 6.60429,-9.77468 19.27174,-18.7957 34.43022,-18.4309 35.86028,0.863 17.3433,-0.0892 92.51157,5.03369 z"
         id="rect14275" />
      <path
         style="color:#000000;fill:url(#linearGradient44160);stroke-width:0.00571785;-inkscape-stroke:none"
         d="m -233.48856,-23.74398 c 80.87178,5.51159 118.12242,7.71731 118.12242,7.71731 23.4863,1.03912 30.30749,23.96758 30.32176,28.99556 l 0.1673,58.95043 c 0.0143,5.02798 -39.24002,28.57582 -50.64889,54.5593 0,0 -50.92714,-70.6795 -89.55821,-74.01567 -97.99544,-8.46286 -86.76991,-2.1247 -140.6535,-6.2382 -5.55739,-0.42425 -6.38843,-20.24069 -5.62725,-25.18897 0,0 -0.4528,-14.52871 10.93457,-31.38254 6.60431,-9.77467 19.27174,-18.7957 34.43024,-18.4309 35.86027,0.863 17.34329,-0.0892 92.51156,5.03368 z"
         id="rect14275-7" />
      <path
         style="color:#000000;fill:#bcdbcd;stroke-width:0.0145933;-inkscape-stroke:none"
         d="m -186.24165,-7.19858 57.47899,0.85331 c 11.81889,0.17546 31.35223,2.44292 32.93792,8.29816 l 2.81783,29.52526 c 5.01729,15.1108 7.08471,17.31223 -6.36718,20.67483 l -76.421,0.28444 c -11.82288,0.044 -17.24605,-5.28837 -17.24605,-11.85732 V 18.90075 c 0,-6.56896 -5.01963,-26.27479 6.79949,-26.09933 z"
         id="rect12214-1-3" />
      <path
         style="color:#000000;fill:#d5fff6;stroke-width:0.012967;-inkscape-stroke:none"
         d="m -183.08965,-2.59353 54.94664,0.70477 c 11.29822,0.14492 23.52728,-1.04988 25.04309,3.78613 l 6.45263,31.76735 c 4.79624,12.48046 9.45737,9.98468 -3.40187,12.76195 l -73.05418,0.23492 c -11.30202,0.0363 -16.48625,-4.36781 -16.48625,-9.7933 V 18.96267 c 0,-5.42549 -4.79847,-21.70112 6.49994,-21.5562 z"
         id="rect12214-1" />
      <path
         style="color:#000000;fill:#bcdbcd;stroke-width:0.0169412;-inkscape-stroke:none"
         d="m -330.36955,-15.26102 111.064,6.24334 c 6.74559,0.3792 10.42258,4.40354 7.11357,11.73859 l -10.51454,23.30735 c -3.30897,7.33505 -4.82905,11.66162 -11.57419,11.27071 l -118.7113,-6.87984 c -6.74511,-0.39091 -7.80703,-5.16061 -4.44492,-12.45807 l 10.29706,-22.34972 c 3.36207,-7.29746 10.02476,-11.25156 16.77032,-10.87236 z"
         id="rect12214-6" />
      <path
         style="color:#000000;fill:#d5fff6;stroke-width:0.0145283;-inkscape-stroke:none"
         d="m -325.99212,-12.39508 105.34841,7.49038 c 5.74175,0.40825 6.20516,3.71633 3.17051,9.8042 l -8.20406,16.45845 c -3.03465,6.08786 -6.14479,11.13049 -11.89026,10.81332 L -350.0148,25.96358 c -5.7454,-0.31717 -6.30866,-3.79841 -3.17047,-9.80419 l 11.72459,-22.4382 c 3.13823,-6.00577 9.72685,-6.52451 15.46856,-6.11627 z"
         id="rect12214" />
      <path
         style="color:#000000;fill:#8a916f;stroke-width:0.000772771;-inkscape-stroke:none"
         d="m -116.99218,26.99884 -1.47714,-1.55212 -15.35084,20.05495 1.47714,1.55212 z"
         id="rect19985" />
      <path
         style="color:#000000;fill:#bcdbcd;stroke-width:0.0101462;-inkscape-stroke:none"
         d="m -148.6862,-2.55045 3.42685,0.44373 12.91635,49.16053 -3.50395,0.38705 z"
         id="rect18099" />
      <path
         style="color:#000000;fill:#cdde87;stroke-width:0.00996374;-inkscape-stroke:none"
         d="m -170.91147,97.67194 a 11.553368,14.680352 0 0 1 -11.55336,14.68035 11.553368,14.680352 0 0 1 -11.55337,-14.68035 11.553368,14.680352 0 0 1 11.55337,-14.68035 11.553368,14.680352 0 0 1 11.55336,14.68035 z"
         id="path19347" />
      <path
         style="color:#000000;fill:#eef4d7;stroke-width:0.00912701;-inkscape-stroke:none"
         d="m -168.63338,97.86262 a 7.7828083,10.295312 0 0 1 -7.78281,10.29531 7.7828083,10.295312 0 0 1 -7.78281,-10.29531 7.7828083,10.295312 0 0 1 7.78281,-10.29532 7.7828083,10.295312 0 0 1 7.78281,10.29532 z"
         id="path19345" />
      <path
         style="color:#000000;fill:#cdde87;stroke-width:0.00996374;-inkscape-stroke:none"
         d="m -86.4512,103.67475 a 11.553368,14.680352 0 0 1 -11.55337,14.68035 11.553368,14.680352 0 0 1 -11.55337,-14.68035 11.553368,14.680352 0 0 1 11.55337,-14.68035 11.553368,14.680352 0 0 1 11.55337,14.68035 z"
         id="path19347-7" />
      <path
         style="color:#000000;fill:#eef4d7;stroke-width:0.00885301;-inkscape-stroke:none"
         d="m -85.4585,102.67524 a 7.3225565,10.295312 0 0 1 -7.32256,10.29531 7.3225565,10.295312 0 0 1 -7.32255,-10.29531 7.3225565,10.295312 0 0 1 7.32255,-10.29531 7.3225565,10.295312 0 0 1 7.32256,10.29531 z"
         id="path19345-5" />
      <path
         style="color:#000000;fill:#eafdf9;stroke-width:0.00996374;-inkscape-stroke:none"
         d="m -125.1942,-2.34953 26.3973,26.50322 2.14961,9.51103 -48.61206,-35.77144 z"
         id="rect21025" />
      <path
         style="color:#000000;fill:#eafdf9;stroke-width:0.00996374;-inkscape-stroke:none"
         d="m -166.93485,-2.60232 24.84399,25.62694 2.55231,10.11769 -47.46143,-35.50182 z"
         id="rect21025-2" />
      <path
         style="color:#000000;fill:#8a916f;stroke-width:0.00661556;-inkscape-stroke:none"
         d="m -108.25163,20.2098 3.01308,-5.97489 -26.48642,19.37188 5.67418,0.44756 z"
         id="rect20125" />
      <path
         style="color:#000000;fill:#8a916f;stroke-width:0.000772771;-inkscape-stroke:none"
         d="m -167.23527,26.53497 -1.47715,-1.55213 -15.20701,19.88644 2.46957,0.84435 z"
         id="rect19985-9" />
      <path
         style="color:#000000;fill:#8a916f;stroke-width:0.00661554;-inkscape-stroke:none"
         d="m -158.4947,19.74593 3.01308,-5.97488 -26.48641,19.37187 5.67418,0.44757 z"
         id="rect20125-2" />
      <path
         style="color:#000000;fill:#000000;stroke-width:0.0102455;-inkscape-stroke:none"
         d="m -302.73597,134.08686 a 31.875414,32.894295 0 0 1 -31.87541,32.89429 31.875414,32.894295 0 0 1 -31.87541,-32.89429 31.875414,32.894295 0 0 1 31.87541,-32.8943 31.875414,32.894295 0 0 1 31.87541,32.8943 z"
         id="path10838-5" />
      <path
         style="color:#000000;fill:#dde9af;stroke-width:0.00851981;-inkscape-stroke:none"
         d="m -314.78543,133.06141 a 25.154497,28.823978 0 0 1 -25.1545,28.82398 25.154497,28.823978 0 0 1 -25.1545,-28.82398 25.154497,28.823978 0 0 1 25.1545,-28.82398 25.154497,28.823978 0 0 1 25.1545,28.82398 z"
         id="path10838-3-0" />
      <path
         style="color:#000000;fill:#000000;stroke-width:0.00740791;-inkscape-stroke:none"
         d="m -318.58585,134.09846 a 21.919479,25.007753 0 0 1 -21.91948,25.00775 21.919479,25.007753 0 0 1 -21.91948,-25.00775 21.919479,25.007753 0 0 1 21.91948,-25.00776 21.919479,25.007753 0 0 1 21.91948,25.00776 z"
         id="path10838-1-3" />
      <path
         style="color:#000000;fill:#bcdbcd;stroke-width:0.00498038;-inkscape-stroke:none"
         d="m -327.95166,134.54993 a 14.458729,17.13592 0 0 1 -14.45873,17.13592 14.458729,17.13592 0 0 1 -14.45873,-17.13592 14.458729,17.13592 0 0 1 14.45873,-17.13592 14.458729,17.13592 0 0 1 14.45873,17.13592 z"
         id="path10838-3-6-6" />
      <path
         style="color:#000000;fill:#d8e9e1;stroke-width:0.00369062;-inkscape-stroke:none"
         d="m -340.37871,133.20209 a 11.041535,12.321908 0 0 1 -11.04154,12.32191 11.041535,12.321908 0 0 1 -11.04153,-12.32191 11.041535,12.321908 0 0 1 11.04153,-12.3219 11.041535,12.321908 0 0 1 11.04154,12.3219 z"
         id="path10838-3-6-2-1" />
      <path
         style="color:#000000;fill:#bcdbcd;stroke-width:0.00688345;-inkscape-stroke:none"
         d="m -362.62333,42.0829 c 31.54051,2.90305 -7.8181,-1.74056 52.30819,1.2842 49.15301,2.47273 83.21186,1.23865 97.90257,9.13176 14.69067,7.89311 16.51439,7.64201 34.19577,21.88225 25.2615,20.34513 17.13783,13.58009 31.51585,29.6721 22.07471,24.70623 -1.43955,21.4052 29.14797,-7.99294 l 32.70937,-31.43749 c 1.32274,-9.41762 -51.12218,42.90109 -51.12218,42.90109 -11.86883,-15.60925 -63.0707,-56.81863 -75.98986,-61.1258 -4.20117,-1.40064 -46.23793,-4.65331 -82.04466,-6.31316 -35.80677,-1.65985 -64.84603,-1.82536 -66.82582,-2.87719 0,0 -6.96145,5.63829 -9.44912,0.11412 0.75303,1.13142 4.03822,4.42844 7.65192,4.76106 z"
         id="rect23784" />
      <path
         style="color:#000000;fill:#bcdbcd;stroke-width:0.00777406;-inkscape-stroke:none"
         d="m -370.54846,89.35177 -0.65751,-1.86264 c -0.39654,-1.12312 -0.34853,-1.7226 0.68858,-1.69448 l 157.11477,4.26024 c 1.89279,0.0513 1.6154,-0.29244 1.61943,0.92296 l 0.006,1.81889 c 0.004,1.21539 -5.3413,0.87086 -6.23862,0.8533 l -150.65241,-2.94865 c -1.03718,-0.0203 -1.48382,-0.2265 -1.88033,-1.34962 z"
         id="rect34005" />
      <path
         style="color:#000000;fill:#eff4f2;stroke-width:0.00545424;-inkscape-stroke:none"
         d="m -369.77917,90.37406 -0.6485,-0.9268 c -0.39111,-0.55884 -0.34133,-0.85475 0.69116,-0.83138 l 156.41857,3.541 c 1.8844,0.0427 1.60935,-0.12982 1.60935,0.47105 v 0.89923 c 0,0.60086 -5.32099,0.38172 -6.21435,0.36485 l -149.9886,-2.83359 c -1.03258,-0.0195 -1.47662,-0.12552 -1.86773,-0.68436 z"
         id="rect34005-5" />
      <path
         style="color:#000000;fill:#bcdbcd;stroke-width:0.0042088;-inkscape-stroke:none"
         d="m -305.98689,-10.74311 c 1.57751,0.36023 5.66524,-1.43911 3.32366,2.89221 l -17.71722,32.77157 c -2.34162,4.3313 -5.10738,7.23204 -6.50234,6.28078 -1.39494,-0.95125 -5.98177,-0.49073 -3.52548,-4.73095 l 17.919,-30.9328 c 2.45633,-4.24024 3.76519,-6.90587 6.50238,-6.28081 z"
         id="rect17597" />
      <path
         style="color:#000000;fill:#eafdf9;fill-opacity:0.585317;stroke-width:0.006073;-inkscape-stroke:none"
         d="m -120.21372,77.03034 a 15.878679,18.536745 0 0 1 -15.87868,18.53675 15.878679,18.536745 0 0 1 -15.87868,-18.53675 15.878679,18.536745 0 0 1 15.87868,-18.53674 15.878679,18.536745 0 0 1 15.87868,18.53674 z"
         id="path36563" />
      <path
         style="color:#000000;fill:#eafdf9;fill-opacity:0.585317;stroke-width:0.00450788;-inkscape-stroke:none"
         d="m -124.81625,76.42365 a 11.736415,13.8183 0 0 1 -11.73641,13.8183 11.736415,13.8183 0 0 1 -11.73642,-13.8183 11.736415,13.8183 0 0 1 11.73642,-13.8183 11.736415,13.8183 0 0 1 11.73641,13.8183 z"
         id="path36563-1" />
      <path
         style="color:#000000;fill:#bcdbcd;stroke-width:0.0042088;-inkscape-stroke:none"
         d="m -264.86495,-7.95271 c 1.57752,0.36022 5.66521,-1.43912 3.32363,2.8922 l -17.71722,32.77157 c -2.34162,4.3313 -5.10738,7.23204 -6.50234,6.28078 -1.39493,-0.95125 -4.55835,-0.46836 -2.22452,-4.8025 l 16.61804,-30.86125 c 2.33387,-4.33417 3.76519,-6.90586 6.50241,-6.2808 z"
         id="rect17597-5" />
      <path
         style="color:#000000;fill:#ffffff;fill-opacity:0.0198413;stroke-width:1.59652;-inkscape-stroke:none"
         d="m -177.48696,-16.16622 61.7805,-0.0124 c 18.83887,-0.004 31.10231,15.02746 31.11039,37.29509 l 0.0269,73.98456 c 0.008,22.26763 -14.96858,40.29591 -33.80714,40.42299 l -58.36331,0.39368 c -18.83852,0.12707 -34.09266,-17.69698 -34.20211,-39.96425 l -0.35229,-71.69671 c -0.10942,-22.26726 14.96827,-40.41921 33.8071,-40.42299 z"
         id="rect10140-5" />
      <path
         style="color:#000000;fill:#d3e48d;stroke-width:1.06631;-inkscape-stroke:none"
         d="m -195.01363,124.90589 h 88.13831 c 3.43575,0 6.20172,2.76597 6.20172,6.20172 v 0.57519 c 0,3.43575 -2.76597,6.20172 -6.20172,6.20172 h -88.13831 c -3.43576,0 -6.20172,-2.76597 -6.20172,-6.20172 v -0.57519 c 0,-3.43575 2.76596,-6.20172 6.20172,-6.20172 z"
         id="rect43374" />
      <path
         style="color:#000000;fill:#dee9b1;stroke-width:1.04904;-inkscape-stroke:none"
         d="m -185.31023,125.08234 h 84.90761 c 3.43575,0 6.20172,2.76597 6.20172,6.20172 v 0.57519 c 0,3.43576 -2.76597,6.20172 -6.20172,6.20172 h -84.90761 c -3.43576,0 -6.20172,-2.76596 -6.20172,-6.20172 v -0.57519 c 0,-3.43575 2.76596,-6.20172 6.20172,-6.20172 z"
         id="rect43374-4" />
      <path
         style="color:#000000;fill:#bddcce;stroke-width:1.47112;-inkscape-stroke:none"
         d="m -193.09688,126.61341 h 36.27161 c 2.42932,0 4.38504,1.95573 4.38504,4.38504 0,2.42931 -1.95572,4.38504 -4.38504,4.38504 h -36.27161 c -2.42932,0 -4.38504,-1.95573 -4.38504,-4.38504 0,-2.42931 1.95572,-4.38504 4.38504,-4.38504 z"
         id="rect44666" />
      <path
         style="color:#000000;fill:#bddcce;stroke-width:1.31287;-inkscape-stroke:none"
         d="m -125.42293,127.04218 h 27.10246 c 2.42931,0 4.38504,1.95573 4.38504,4.38504 0,2.42931 -1.95573,4.38504 -4.38504,4.38504 h -27.10246 c -2.42932,0 -4.38504,-1.95573 -4.38504,-4.38504 0,-2.42931 1.95572,-4.38504 4.38504,-4.38504 z"
         id="rect44666-7" />
    </g>
    <path
       style="color:#000000;fill:#ffd42a;stroke-width:0.18009;-inkscape-stroke:none"
       d="m 2.8031925,137.58935 5.348923,-2.06788 15.6669125,0.36336 -5.559529,2.22573 z"
       id="rect42724" />
    <path
       style="color:#000000;fill:#ffd42a;stroke-width:0.18009;-inkscape-stroke:none"
       d="m 47.351552,141.03329 5.348923,-2.06788 15.666912,0.36336 -5.559529,2.22573 z"
       id="rect42724-2" />
    <path
       style="color:#000000;fill:#ffd42a;stroke-width:0.18009;-inkscape-stroke:none"
       d="m 96.18948,143.58968 5.34893,-2.06788 15.66691,0.36336 -5.55953,2.22573 z"
       id="rect42724-72" />
    <path
       style="color:#000000;fill:#ffd42a;stroke-width:0.18009;-inkscape-stroke:none"
       d="m 139.59743,146.38123 5.34893,-2.06788 15.66691,0.36336 -5.55953,2.22573 z"
       id="rect42724-26" />
    <path
       style="color:#000000;fill:#ffd42a;stroke-width:0.18009;-inkscape-stroke:none"
       d="m 179.93777,147.9746 5.34893,-2.06788 15.66691,0.36336 -5.55953,2.22573 z"
       id="rect42724-1" />
    <path
       style="color:#000000;fill:#617082;stroke-width:0.264583;-inkscape-stroke:none"
       d="M 28.111451,48.162583 60.922807,-2.3885431 57.513954,35.39466 71.532333,79.908592 c -6.931627,-1.335571 -33.071125,-8.359364 -33.071125,-8.359364 0,0 -23.11659,18.498621 -29.805608,21.642486 z"
       id="rect53439" />
    <path
       style="color:#000000;fill:url(#linearGradient61526);fill-opacity:1;stroke-width:0.264583;-inkscape-stroke:none"
       d="M 28.111451,48.162583 60.922807,-2.388543 57.513954,35.39466 71.532333,79.908592 c -6.931627,-1.335571 -33.071125,-8.359364 -33.071125,-8.359364 0,0 -23.11659,18.498625 -29.805608,21.642485 z"
       id="rect53439-91" />
    <path
       style="color:#000000;fill:#617082;stroke-width:0.192336;-inkscape-stroke:none"
       d="m 115.26211,62.47484 7.09314,-2.488779 29.21902,12.429133 51.6106,15.807311 c -7.19623,-0.67982 -39.04856,9.283626 -39.04856,9.283626 0,0 -30.74957,-17.47765 -37.69394,-15.877386 z"
       id="rect53439-6" />
  </g>
</svg>
